<svg xmlns="http://www.w3.org/2000/svg" width="800" height="800" viewBox="0 0 800 800">
  <defs>
    <style>
      .cls-1, .cls-2 {
        fill: #fff;
        fill-rule: evenodd;
      }

      .cls-1 {
        opacity: 0.38;
      }
    </style>
  </defs>
  <path id="Color_Fill_5" data-name="Color Fill 5" class="cls-1" d="M390,152c8.463,1.8,21.674-.373,31,1,13.882,2.043,26.776,3.346,38,6,67.219,15.892,112.034,57.4,148,105,14.359,19,21.626,43.2,30,68,4.1,12.138,6.573,30.973,9,42,1.3,5.889-.508,14.87,0,18,3.258,20.085-2.257,36.991-5,56-12.143,84.143-72.882,142.668-139,177-32.506,16.879-63.852,17.2-102,22-11.394,1.434-24.894-2.615-36-4-28.774-3.589-57.834-14.436-82-28-3.714-2.084-7.793-1.518-11-4-15.729-12.174-33.031-23.042-47-37-33.587-33.561-54.014-76.611-66-129-5.521-24.131-8.55-67.234-1-93,5.09-17.371,11.2-40.24,19-58,25.054-57.027,75.044-100.694,133-125,17.435-7.312,37.6-10.5,57-15C370.287,153.006,384.67,155.288,390,152Zm-6,13c-3.893,2.269-12.341,2.86-16,2-8.725,2.748-14.831,3.013-21,5-6.639,2.138-15.229.018-17,7,7.025,3.828,14.186,13.086,22,15,5.431,1.33,9.161-4.232,12-6,10.222-6.364,22.642-11.2,34-16,4.5-1.9,13.529-2.1,16-6a18.324,18.324,0,0,0-6-1C404.451,166.774,385.439,165.346,384,165Zm68,10c-3.785,2.245-10.816-.246-16,1-17.78,4.272-38.725,9.044-54,18-5.164,3.028-11.318,2.587-14,8h1c2.891,5.3,12.31,6.345,18,9,8.02,3.742,14.848,10.95,26,12,3.05-8.674,30.943-34.466,39-40,3.634-2.5,6.469-2.466,9-6C458.922,176.327,454.067,175.719,452,175Zm-141,7c-6.61,6.062-16.957,7.279-25,12-9.789,5.746-18.98,13.528-28,20-5.692,4.084-15.423,8.143-17,16,11.675,5.908,22.522,16.16,33,24,2.143,1.6,10.147,6.984,11,6,5.134-3.457,6.952-9.462,11-14,5.831-6.536,12.817-11.823,19-18,3.24-3.236,5.512-8.074,9-11,5.131-4.3,16.3-8.772,18-16-10.181-2.5-20.21-11.7-26-19h-5Zm175,1c-23.038,2.157-35.927,19.423-49,32-2.3,2.211-14.225,11.772-12,14,5.056,4.7,26.809,15.191,35,16,5.871-11.143,9.693-22.87,15-35C478.661,201.631,484.92,193.831,486,183Zm12,6c-6.189,13.746-11.737,27.609-18,42-2.8,6.425-7.134,11.393-8,20,3.915,1.8,32.879,14.326,36,13,4.07-6.022.057-12.814,2-22,3.667-17.334-2.887-38.927-10-53h-2Zm68,96c-0.688-20.012-20.708-58.538-31-70-4.205-4.683-9.8-7.129-13-13h-1v1c-0.752,1.073-.6.946-1,3,7.852,11.953,1.185,48.089,1,64C534.6,275.321,550.059,283.312,566,285ZM353,210c-5.265,6.718-14.138,11.82-21,17-9.616,7.259-17.45,18.519-25,28-3.7,4.643-9.072,6.312-10,14,16.216,7.346,30.794,16.632,47,25,5.409,2.793,8.751,6.777,16,8,3.9-9.8,10.034-18.228,16-26,6.394-8.329,9.807-19.434,16-28,3.113-4.305,7.685-7.583,10-13,0.251-.968.784-0.379,0-1C396.538,229.183,360.9,211.313,353,210Zm256,86c-2.127-14.567-24.164-40.037-33-50-4.758-5.365-8.585-13.489-16-16v3c5.194,4.03,17.03,34.643,18,43,0.351,3.022.327,9.516,3,13C585.961,293.585,600.833,295.444,609,296ZM230,238c-8.116,10.03-17.065,19.806-25,30-3.741,4.806-4.269,11.135-8,16-2.809,3.663-9.742,12.385-8,17,2.979,2.324,6.12,2.3,10,4,10.914,4.772,23.18,10.761,34,16,3.155,1.528,11.43,5,13,4,9.015-9.767,10.787-25.29,19-36,4.086-5.328,10.425-11.512,12-19C260.165,265.376,245.419,242.637,230,238ZM331,393H317v-1c3.4-3.63,6.153-13.425,7-19-15.508-6.9-30.961-13.017-47-20-7.52-3.274-14.428-8.933-24-10-6.528,14.742-8.4,26.2-14,44-0.967,3.071-4.213,9.548-3,12,1.991,4.229,5.677,2.513,7,5-0.8,1.021-.355.274-1,2h16c2.711,4.491,7.78,2.923,13,5,10.821,4.307,22.076,10.375,35,12q2.5-8.5,5-17h15v1c-4.456,4.76-7.053,14.051-8,22a17.682,17.682,0,0,1,4,2c-11.1,9.2-12.955,27.725-23,38,0.631,1.754.193,0.971,1,2,1.172,1.151,2.836,1.839,4,3-4.091,5.547-9.936,34.613-10,46,12.186,5.342,25.617,14.6,40,16,3.629-9.528,9.9-28.693,16-36a23.84,23.84,0,0,0,11,6c-3.235,4.124-16.592,31.4-15,35,2.069,3.879,32.732,17.006,39,18,6.334-10.26,14.651-20.453,22-30,3.762-4.887,4.622-10.8,8-16,4.461-6.868,10.523-13.057,13-22-5.065-2.435-7.6-5.958-14-7a22.526,22.526,0,0,1,6-12c3.292,4.29,11.477,6.933,17,6,4.1-17.184,17.853-28.984,21-47-4.073-1.532-9.123-3.17-12-6h1c1.621-3.823,2.834-7.522,7-9,2.019,2.085,6.715,4.257,9,3,9.608-10.88-1.507-13.214,21-13v1c-4.031,3.253-7.478,12.6-8,19,14.875,6.6,29.638,12.271,45,19,8.116,3.555,15.938,9.421,26,11,1.489-7.219,5.831-12.871,8-19,5.192-14.669,5.611-26.831,10-38l-2-1c-2.949-2.351-5.744-.736-7-3,0.8-1.021.355-.274,1-2H543c-3.508-3.951-8.5-2.759-14-5-10.285-4.188-22.313-11.493-35-12-0.318,3.409-6.788,16.464-5,17H474v-1c3.838-4.809,7.6-14.569,8-22-3.313-2.063-1.884-.225-2-4,6.676-7.077,16.858-27.175,22-38-2.69-.8-3.707-1.841-6-3,5.721-14.847,9.759-30.471,10-46-10.8-4.88-27.311-15.113-40-16-5.958,10.949-10.489,23.58-16,35-3.507-1.514-8.338-3.558-10-7,4.473-5.014,13.5-26.649,14-35-13.8-3.375-24.7-13.516-39-16-8.539,13.407-21.053,26.187-29,40-1.415,2.46-.562,4.765-2,7-4.1,6.379-10.507,12.112-12,21,5.352,2.494,9.2,5.537,15,8-1.612,3.645-3.647,8.886-8,10-3.283-3.17-9.212-5.536-15-6-4.537,16.907-19.966,29.092-22,48l12,5v2c-2.833,2.317-3.51,6.375-6,9-2.805-2.72-7.144-4.385-12-5C333.937,383.528,331.562,387.056,331,393ZM288,279c-7.906,10.318-27.51,38.5-29,53l70,30c6.193-11.448,10.637-23.8,17-36,1.607-3.081,8.014-8.878,6-12-5.621-5.726-13.968-6.474-21-11-5.067-3.261-11.822-8.1-17-11l-7-2C301.216,286.319,296.111,280.382,288,279Zm231,4c-5.31,16.672-5.782,33.335-11,50-2.649,8.462-7.752,18.5-9,30,13.776,6.105,27.692,8.854,43,14,7.608,2.558,15.322,7.354,25,8,4.172-17.264,6.908-45.872,4-60-1.838-8.933,1.322-18.9-3-25-4.064-3.111-6.982-2.162-13-4C543.857,292.6,530.1,287.692,519,283Zm64,21c0.031,10.926,3.429,23.394,2,34-2.43,18.035-4.681,33.783-5,51,9.422,1.19,47.124,12.7,53,10,2.083-2.97,1-20.048,0-24q-2.5-15.5-5-31c-1.563-4.973-4.47-11.316-6-16-1.878-5.749-2.216-16.565-7-19h-9ZM329,447a24.676,24.676,0,0,1,6-12c2.4,2.616,34.57,14.6,36,14,5.212-5.611,20.094-40.581,19-48l-29-12v-1c2.622-2.066,4.475-5.906,6-9,5.017,1.292,26.456,12.2,28,11,5.367-2.164,4.731-6.761,7-12,4.683-10.815,13-22.21,15-35-5.813-1.3-20.916-6.72-23-12,2.891-3.217,3.044-7.68,8-9,4.32,4.03,14.318,7.982,21,9,3.16-7.485,6.491-20.313,12-26,3.107,3,7.31,3.426,9,8-4.294,5.432-8.814,16.429-10,24,13.172,3.066,25.844,10.745,38,16-2.293,4.42-3.522,9.386-10,10-4.487-3.987-26.98-13.3-34-14-5.394,12.326-18.087,34.032-19,48l30,13c-1.7,4.071-3.181,8.829-8,10-5.567-5.177-19.588-10.68-28-12-6.147,10.969-11.992,24.517-17,36-1.353,3.1-3.894,9.61-3,11,6.318,5.7,17.873,6.1,24,12-2.9,3.094-4.058,7.941-7,11-2.125-2.512-21.967-10.639-23-10-6.146,6.781-6.454,18.542-12,26-2.73-3.349-7.981-4.037-10-8,4.448-4.725,9.287-16.359,10-24C353.785,457.1,341.674,449.156,329,447ZM223,397c0.648-21.936,13.077-40.555,18-60-13.649-6.252-28.115-11.148-42-18-4.05-2-11.837-7.661-16-6-10.372,11.687-15.931,53.99-17,72,2.542,1.372,3.5,1.917,8,2,4.708,2.964,11.8,1.436,18,3C201.9,392.5,212.055,396.113,223,397Zm-57,2c-0.885,35.586,5.456,64.169,17,88,7.571-1.853,30.817,4.965,33,4,0.8-1.18.773-1.681,1-4-2.238-3.6-.157-10.844-1-16-2.478-15.165,3.128-41.381,4-61h-1v-1C201.827,407.934,183.961,401.414,166,399Zm412,3c-4.206,9.876-5.809,23.558-9,32-3.11,8.228-8.9,18.109-10,28l42,19c3.194,1.55,13.727,5.994,15,5,5.7-4.855,5.283-12.833,8-21,4.884-14.681,8.287-34.533,10-52h-2c-6.773-5.714-14.724-1.721-23-4C599.535,406.394,589.087,402.9,578,402ZM301,435c-15.943-2.169-34.767-11.167-47-16-3.927-1.552-18.431-5.45-19-5-2.873,1.12-1.842.174-3,3-4.415,7.445-5.3,50.005-3,61,1.362,6.506-1.026,12.742,2,17,3.957,3.679,33.35,14.24,37,14,4.373-.287,8.812,5.7,13,4,5.073-8.19,1.936-15.729,5-25,3.456-10.459,5.192-21.8,9-34C296.8,448.239,300.334,442.128,301,435Zm169,2c-5.321,12.226-10.5,22.471-16,35-1.924,4.38-5.714,7.906-7,13,12.268,6.462,25.534,13.845,37,21l9,3c6.094,3.909,11.01,10.014,20,11,1.464-5.1,5.488-8.141,8-12,5.743-8.823,18.153-30.259,20-41-16.924-6.569-33.091-13.622-50-21C484.439,443.137,478.029,438.4,470,437Zm83,36c-6.058,15.363-15.313,28.5-23,42-1.574,2.765-7.442,11.51-6,13,3.612,5.154,9.766,6.42,15,10,4.138,2.831,7.93,8.115,12,11,5.877,4.166,12.058,6.993,17,12,1.754-.631.971-0.193,2-1,5.914-4.068,9.778-11.143,14-17,9.117-12.648,25.158-27.153,27-46C590.24,492.57,573.971,476.679,553,473ZM439,497c-3.235,14.913-24.228,41.925-33,54-1.836,2.527-10.083,14.091-9,15,2.392,2.142,6.332,1.973,9,4,8.17,6.21,18.865,10.833,27,17,2.123,1.61,9.284,3.519,10,3,25.628-12.261,40.456-38.4,60-57v-2c-8.152-4.963-16.9-11.5-25-16-4.479-2.492-8.851-2.359-13-5C457.73,505.374,449.231,498,439,497Zm-250,2c2.376,17.05,26.686,44.748,37,56,3.956,4.316,6.38,10.416,12,13v1c1.01,0.99.988-.985,1-1,0.251-.968.784-0.379,0-1-3.844-13-11.612-26.371-16-40-1.52-4.722-2.04-19.945-5-22C213.66,501.986,195.7,499.342,189,499Zm44,12c2.241,22.8,15.909,50.872,27,66,5.072,6.919,12.827,12.232,18,19h1v-1c1.011-2.61-1.827-9.263-2-13-0.708-15.274,1.843-36.539,2-55C262.994,524.795,250.134,512.272,233,511Zm58,23q-0.5,9-1,18c-1.235,6.783-1.575,53.319,12,57,6.538-14.437,12.193-29.333,19-44,1.921-4.139,7.332-12.359,6-16C324.983,544.49,298.02,534.566,291,534Zm223,4c-1.978,5.584-6.878,7.8-10,12a153.34,153.34,0,0,1-25,27l-8,9c-5.271,3.922-13.055,6.914-16,13h1c3.971,3.84,23.2,18.6,29,19,6.233-5.409,15.854-5.337,23-10,18.084-11.8,35.408-22.949,51-37v-2C542.994,561,531.346,544.123,514,538ZM339,554c-6.611,14.872-12.272,29.636-19,45-2.221,5.072-5.869,9.464-7,16h2c4.486,1.74,13.1-3.694,17-6,10.511-6.213,41.043-28.08,43-40C361.945,565.827,352.955,555.017,339,554Zm47,23a144.163,144.163,0,0,1-32,34c-4.961,3.672-13.624,5.893-16,12h27c5.592-3.507,14.141-1.59,21-4a230.144,230.144,0,0,0,28-12c5.681-2.881,13.271-3.262,15-10C413.013,593.455,403.907,578.774,386,577Zm55,30c-15.368,12.583-36.535,16.182-56,25v1h6c9.263,5.434,56.964-4.9,75-9v-3C456.144,618.219,452.492,608.218,441,607Z"/>
  <path id="Color_Fill_4" data-name="Color Fill 4" class="cls-2" d="M697,258c-2.328-.195-2.826-0.193-4-1-7.895-2.8-12.794-11.319-19-16-21.733-16.392-36.831-37.955-53-60-5.184-7.069-19.922-16.583-21-26h1c9.671,7.421,28.169,9.405,39,16,26.994,16.436,40.037,37.065,51,70C692.787,246.368,696.061,251.732,697,258ZM99,262c0.991-7.808,4.838-14.407,7-21l4-18c9.845-23.4,28.768-38.487,51-50,9.883-5.118,18.717-12.488,33-13v2c-11.6,8.325-19.7,22.207-28,34-11.7,16.624-24.753,33.8-41,46C117.452,247.666,109.965,260.684,99,262Zm574-71c12.472,2.588,18.773,7.875,27,14,12.289,9.15,23.413,22.42,29,38,7.034,19.616,3.158,68.994,3,95h-2v-1c-9.144-9.685-15.1-22.777-26-31-27.939-21.078-64.969-43.774-67-90h1c13.2,22.286,33.651,32.961,54,48,7.152,5.286,11.525,14.036,19,19v-2c-2.841-4.181-2.222-9.5-4-15-4.254-13.159-6.718-30.936-12-44a88.952,88.952,0,0,0-11-19C680.683,198.576,675.165,196.78,673,191ZM158,224c-0.158,41.375-45.719,67.808-68,89-4.381,4.167-21.176,28.191-24,29v-2c-2.961-4.778.894-27-1-36-8.967-42.617,7.5-77.917,31-95,6.644-4.83,12.214-11.223,23-12v1h1c-4.5,8.616-13.754,14.258-18,24-5,11.474-5.3,23.879-9,37L83,292h1v-1l13-16c14.444-11,28.463-22.043,43-33C146.335,237.225,149.208,225.87,158,224Zm514,65c2.076,0.372,1.924.242,3,1,8.684,8.29,15.391,19.747,25,27,10.237,7.727,21.658,17.5,29,28,4.941,7.063,6.127,18.167,11,25q1-51.995,2-104c-2.038-8.2-6.894-15.262-9-23h1v-1h2c10.092,15.091,21.713,28.435,28,48,16.266,50.62-8.458,100.889-19,141h-1v-1c-3.191-3.728-2.9-8.926-5-14a179.885,179.885,0,0,0-13-26C708.3,361.926,672.866,331.866,672,289ZM59,248c3.245,0.828,1.528-.49,3,2-13.763,16.951-8.253,67.691-3,92,2.313,10.7-5.007,31.436-1,38,1.8-29.318,30.474-54.08,49-68,6.015-4.519,8.344-14.3,16-17v1c0.961,1.418.976,3.273,1,6-2.044,3.239-1.558,8.049-3,12l-13,31c-11.751,19.019-27.243,36.8-39,56-3.865,6.312-10.091,31.191-15,34-2.489-39.446-35.234-70.577-24-119l1-16C36.559,278.974,48.559,263.868,59,248ZM556,393v13H456c-3.074,12.57-13.646,24.656-20,35-8.29,13.5-13.738,27.487-22,41-8.1,13.247-17.057,26.671-24,41-22.1-10.374-43.467-25.362-64-38-6.2-3.813-24.43-10.059-26-17,5.895-4.923,7.876-14.245,12-21,8.092-13.256,17.044-26.638,24-41H243V393H344c12.382-27.644,32.233-57.357,48-83,6.6-10.737,10.384-25.165,19-34,5.082,4.6,11.937,6.282,18,10,16.023,9.826,32.988,20.156,49,30,6.648,4.087,19.517,7.039,23,14-7.787,7.909-11.065,20.244-17,30-6.123,10.066-15.6,20.9-19,33h91ZM415,294c-20.548,37.764-42.67,75.58-65,112-8.554,13.951-15.717,28.471-24,42-3.343,5.461-4.593,11.721-9,16,0.631,1.754.193,0.971,1,2,10.583,10.438,33.439,18.694,47,27,6.41,3.926,12.549,10.322,21,12,3.969-13.667,17.641-31.072,25-43,17.791-28.837,31.2-59.242,49-88,7.375-11.914,19-25.952,23-40h1v-1h-1c-6.856-6.305-16.847-9-25-14C445.772,311.509,429.2,298,415,294Zm285,70c0.857,12.172,9.718,22.393,15,31,13.472,21.953,25.678,39.459,26,75h1v-1l10-35c7.128-16.866,15.577-33.664,21-53,1.821-6.491,2.132-33.462,6-36v1c7.022,8.563,5.212,21.885,8,35,2.27,10.679,1.228,27.318-1,37-3.706,16.106-4.239,28.777-10,42-6.764,15.525-19.566,27.919-29,41-5.054,7.008-15.26,26.269-23,29v-1c-3.656-6.112.609-31.31-2-41l-13-40q-5.5-23.5-11-47c-2.172-8.428-6.016-29.227-1-36v-1h3ZM19,351c2.565,2.243,2.2,7.041,2,12,3.565,6.13,2.156,20.974,5,28,8.673,21.428,19.736,41.543,27,64,2.827,8.74.993,22.117,6,29-1.125-43.323,11.688-58.031,24-86,3.877-8.808,11.262-29.338,19-33v5c3.208,4.926-1.432,37.381-3,44-6.524,27.546-14.442,51.875-21,78-3.333,13.278,1.166,32.055-3,44-1.754-.631-0.971-0.193-2-1-5.756-5.817-9.077-14.391-14-21-7.177-9.636-17.367-17.5-24-28C15.652,455.388-.571,393.921,19,351Zm682,97c2.467,1.3.681-.429,2,2,3.826,6.123.286,19.414,2,27,7.079,31.338,12.622,66.15-1,95h1c10.918-18.837,26.276-33.165,39-50l11-10c7.638-7.707,16.3-17.7,22-27,5.122-8.361,5.489-18.969,9-29,1.754,0.631.971,0.193,2,1,8.044,10.518-3.915,49.969-7,58-15.5,40.368-44.493,60.734-78,83-11.984,7.964-23.458,17.556-37,24v-4c11.068-13.731,12.537-39.058,17-59q0.5-13,1-26c3.482-15.7,1.437-34.113,6-50C693.242,471.712,698.015,459.071,701,448ZM97,458c2.873,1.12,1.842.174,3,3,6.083,6.777,5.262,18.736,8,29,7.529,28.223,4.453,64.456,12,94l6,22c2.84,6.722,7.695,12.487,9,21h-2c-10.343-9.717-25.23-14.759-37-23C46.978,569.675,9.5,544.506,11,462h2v2c1.985,2.711.766,4.837,2,9a82.88,82.88,0,0,0,8,18c13.049,21.081,34.441,34.757,49,54,4.454,5.887,9.846,11.215,14,17,3.937,5.483,5.727,12.914,11,17-14-27.371-10.716-65.481-3-97C95.922,474.148,94.523,465.352,97,458Zm580,71c-0.28,10.958-5.369,21.8-8,32-5.066,19.642-3.929,39.882-11,57-6.11,14.79-15.808,24.975-24,37h1c9.368-11.822,25.77-17.935,39-26,33.954-20.7,70.625-32.68,88-70h2v4c-4.3,6.137-3.984,15.823-7,23a144.568,144.568,0,0,1-14,25c-18.9,26.934-49.481,48.854-84,60-11.839,3.822-24.057,2.612-37,6-10.027,2.625-18.9,6.833-31,7v-2c28.218-19.8,33.649-64.086,48-98,3.911-9.243,9.926-18.02,15-26C658.6,550.763,668.464,530.687,677,529Zm-554,5c2.076,0.372,1.924.242,3,1,22.6,22.531,33.818,53.788,47,86,8.937,21.838,17.3,53.027,37,63v1h-1c-1.69,1.142-4.9,1.066-8,1-2.64-1.656-6.5-.958-10-2-15.412-4.589-34.384-4.952-51-10C94.58,660.2,41.825,618.13,36,566h2v1c2.893,2.793,3.62,6.59,6,10,5.319,7.622,13.518,16.5,21,22a226.464,226.464,0,0,0,41,24c8.142,3.564,15.647,5.517,23,10,13.769,8.4,26.488,19.325,40,28-3.273-5.015-9.508-7.309-13-12-3.178-4.269-6.364-9.668-9-14-6.6-10.848-9.877-27.759-13-41V583C130.3,567.435,123.52,550.59,123,534Zm498,76c3.245,0.828,1.528-.49,3,2-6.764,7.21-9.718,17.234-14,27-10.576,24.122-26.784,50.6-55,57v1h4c6.339-3.795,16.969-1.159,25-3,21.887-5.018,48.18-2.914,70-9,10.346-2.886,22.521-6.446,31-12,7.247-4.747,11.951-14.259,21-17v2c-4.153,5.04-6.1,11.732-10,17-9.6,12.976-25,24.492-39,33-47.085,28.6-115.732,6.466-167-4v-2l3-1c3.971-2.444,10.227-1.443,15-3a114.015,114.015,0,0,0,24-11c14.358-9.046,28.082-22.186,40-34l14-15c8.608-6.513,15.567-14.755,24-21C613.551,614.37,617.9,613.034,621,610Zm-445,3h4c2.654,3.323,6.535,4.438,10,7,7.277,5.381,13.585,12.4,21,18,17.979,13.584,31.047,34.371,50,47,14.152,9.43,33.027,12.594,50,19v1c-24.625,1.769-48.251,11.428-71,17-52.221,12.79-97.244-6.308-122-31-7.67-7.651-20.682-16.666-23-29h3c16,20.428,43.58,23.327,74,30l34,2c6.452,1.421,37.086,6.209,41,4-33.149-4.155-45.056-36.12-58-61C185.008,629.327,177.52,622.577,176,613ZM161,727c6.548,1.053,10.922,4.854,16,7,9.033,3.816,19.783,4.662,30,7,13.55,3.1,30.759-2.943,40-6,29.849-9.875,55.274-23.138,87-31,19.515-4.836,48.778.189,63,4,6.674,1.789,12.71-2.76,17-4,8.415-2.432,18.661-1.164,27-3,9.973-2.2,29.838,2.794,37,5,15.862,4.886,28.653,7.813,43,14,10.116,4.362,20.721,10.552,32,14,13.385,4.092,46.706,5.355,61,1,10.015-3.051,17.657-9.525,28-12v3c-15.048,11.71-27.751,24.95-47,33-5.821,2.434-12.887,3.614-19,5-10.975,2.489-25.388,1.264-35-1-23.338-5.5-38.839-10.332-56-21-22.434-13.946-28.226-27.634-64-27v1h2c7.074,6.412,17.747,8.767,26,14,13.479,8.547,27.115,19.564,39,30,4.125,3.622,17,10.211,15,16a18.11,18.11,0,0,1-17,13c-3.3-4.646-8.98-7.981-13-12-14.339-14.337-28.184-26.914-45-39-9.789-7.036-15.765-14.871-33-15-4.105,5.654-13.292,7.915-19,12a347.279,347.279,0,0,0-43,36c-5.791,5.791-11.777,18.336-21,20-4.341-5.333-13.4-7.08-15-15,5.607-3.644,8.818-10.086,14-14,21.018-15.873,42.944-37.13,70-46v-1c-14.236-2.921-29.594,3.159-39,9-31.069,19.293-72.817,58.21-128,40-8.483-2.8-17.035-7.674-24-12C180.608,746.166,163.37,739.1,161,727Z"/>
</svg>
