<svg xmlns="http://www.w3.org/2000/svg" width="4096" height="4096" viewBox="0 0 4096 4096">
  <defs>
    <style>
      .cls-1, .cls-2 {
        fill-rule: evenodd;
      }

      .cls-2 {
        fill: gold;
      }
    </style>
  </defs>
  <circle cx="2048" cy="2048" r="2048" fill="282138"/>
  <circle cx="2048" cy="2048" r="1888" fill="white"/>
  <path id="Color_Fill_2" data-name="Color Fill 2" class="cls-1" d="M3345,1993v110H2525c-5.19,11.12-12.73,21.79-19,32-12.37,20.15-22.88,41.24-35,61-8.28,13.5-13.74,27.49-22,41-25.97,42.47-49.99,87.55-76,130-15.29,24.95-26.7,51.05-42,76-74.4,121.34-139.64,249.6-214,371-6.87,11.22-11.12,22.79-18,34-31.65,51.62-60.38,106.34-92,158-9.96,16.26-18.21,33.21-28,49-3.36,5.42-5.29,15.1-11,18q-375.96-218.985-752-438c0.33-1,.67-2,1-3,4.62-5.09,6.27-11.9,10-18,8.28-13.54,15.46-28.03,24-42,27.5-44.98,51.16-92.61,79-138,34.46-56.2,65.55-115.75,100-172,9.3-15.19,15.73-30.82,25-46,15.27-25,28.47-51.56,44-77,6.77-11.09,16.76-23.1,21-36H751V1993h833c2.95-11.7,13.03-23.28,19-33,12.41-20.21,22.86-41.21,35-61,8.28-13.5,13.74-27.49,22-41,30.18-49.37,57.77-101.67,88-151,15.29-24.96,26.74-51.03,42-76,46.59-76.24,88.32-156.8,135-233,13.89-22.67,24.14-46.32,38-69,28.76-47.07,55.19-96.95,84-144,8.27-13.51,13.74-27.48,22-41,23.95-39.2,48.98-79.79,70-121,1.75,0.63.97,0.19,2,1,7.44,2.18,13.89,8.24,20,12,14.32,8.82,29.11,16.45,43,25,40.26,24.79,82.15,46.49,122,71,34.23,21.06,69.72,37.98,104,59,92.26,56.57,188.69,108.46,281,165,44.27,27.12,90.18,51.08,134,78,12.06,7.41,24.39,13.86,36,21,4.48,2.75,9.4,2.28,11,8-11.69,12.87-20.42,37.33-30,53-23.29,38.09-43.38,78.49-67,117-31.65,51.61-60.36,106.35-92,158-9.68,15.8-16.32,32.21-26,48-19.11,31.17-35.66,64.33-55,96-11.45,18.75-23.88,38.13-34,58h757ZM2179,1174c-2.99,11.8-15.72,27.77-22,38-15.2,24.76-28.06,50.73-43,75-9.71,15.77-16.34,32.2-26,48-34.4,56.27-65.56,115.78-100,172-30.35,49.55-54.71,101.42-85,151-87.84,143.76-164.79,295.49-253,439-26.2,42.62-46.94,87.34-73,130-38.59,63.16-73.36,129.9-112,193-11.08,18.09-18.94,36.9-30,55-16.28,26.66-30.44,54.88-47,82-7.12,11.66-17.54,24.52-22,38,13.32,3.83,34.05,19.62,46,27,28.42,17.54,57.97,32.78,86,50,28,17.2,56.96,30.83,85,48,69.21,42.4,140.81,83.04,211,124q51.69,30.165,103,60c4.77,2.78,31.32,17.6,32,17,6.31-6.93,8.96-16.75,14-25,12.07-19.75,22.64-40.79,35-61,30.19-49.38,57.7-101.71,88-151,9.7-15.78,16.34-32.19,26-48,75.63-123.77,142.24-254.32,218-378,25.02-40.84,46.26-83.61,71-124,30.34-49.53,54.63-101.47,85-151,50.92-83.04,96.12-170.91,147-254,14.91-24.34,26.14-49.68,41-74,20.49-33.55,38.27-69.05,59-103,8.23-13.48,24.75-35.76,29-51Z"/>
  <path id="Color_Fill_1" data-name="Color Fill 1" class="cls-2" d="M2044,288c411.15,12.252,667.03,112.347,932,264,29.09,16.647,64.27,43.788,94,66,28.47,21.267,58.88,39.19,84,61q42,36.5,84,73v8q-45,44-90,88c-7.21,7.215-14.19,19.9-25,23-11.37-14.947-28.77-24.795-43-37-50.98-43.733-96.34-80.566-156-117-33.47-20.44-71.64-45.181-108-68q-19.005-9.5-38-19c0.88-.622-7.9-0.1-4-3a370.535,370.535,0,0,1-46-23c-1.3-.751-7.69.526-4-2q-61.5-25.5-123-51l-92-31c-5.52-2.873-32.14-4.51-27-8-5.98-1.736-30.37-7.748-30-8l-110-25-48-6v-2l-58-6c-2.08-.285-2.64-0.879-1-2l-64-4c-7.39-2.575-21.45.826-31-2-21.31-6.3-112.94-7.724-136-2-14.21,3.528-33.28-2.009-45,2h-30l-124,14c-25.11,9.861-66.69,7.914-98,18-77.43,24.945-159.05,36.436-232,70-65.59,30.177-130.41,55.946-197,92-60.06,32.52-116.86,74.307-172,111q-48.99,39-98,78c-10.065,7.826-22.439,29.61-37,31-4.479-9.635-15.752-15.833-23-23l-39-41c-1.236-1.174-6.631-2.079-4-4-16.089-9.981-39.988-31.216-49-48l2-2c6.431-10.216,21.072-19.964,31-27,20.271-14.366,38.542-35.229,61-51,14.844-10.424,33.414-28.569,50-41,1.48-1.11,7.98-1.789,5-4l115-78c56.52-37.623,118.72-60.935,177-96l127-54c16.14-6.88,32.58-12.046,45-16,1.69-.539,7.65.5,4-2,30.55-9.918,64.57-14.709,92-29,4.05-2.108,30.76-6.821,29-8,18.43-5.361,32.03-3.415,49-12l19-2c22.1-7.942,48.61-6.264,70-17,2.16-1.086,39.91-2.758,35-6,6.16-1.69,45.74-2.823,41-6,4.69-1.279,56.33-2.383,51-6,21.61-5.833,50.3,3.313,69-6h24C1962.38,291.971,2039.44,291.815,2044,288ZM3338,854c1.67,0.333,3.33.667,5,1,23.03,15.7,58.89,64.441,76,89,10.18,14.612,29.1,32.575,41,49,27.51,37.99,59.15,84.23,88,134,21.02,36.26,42.92,70.07,64,109,16.45,30.39,27.87,63.67,45,93q27.495,69.99,55,140l33,105q4.005,19.005,8,38h2q13.5,62.49,27,125c1.45,2.88,4.82,53.8,8,49q7.005,64.5,14,129c3.96,7.97-.31,26.24,2,33v48c4.86,16.54,5.54,82.81,0,99v25c0,19.15.9,66.3-6,80q-1.995,29.49-4,59c-13.69,35.43-8.89,92.46-22,136-12.49,41.48-16.68,94.35-31,129-10.79,26.11-15.93,62.79-29,92-36.09,80.65-63.24,178.56-107,243q-13.005,26.49-26,53c-23.92,41.36-44.94,75.28-74,115-6.25,8.55-37.62,60.52-42,61q-19.995,26.49-40,53c-0.98,1.27-2.54,5.06-4,3-14.54,26.07-39.52,49.4-57,68-6.69,7.13-13.47,23.61-26,24q-40.995-42-82-84c-8.73-8.72-27-18.63-29-33,19.92-12.35,47.63-53.06,62-73,10.57-14.67,29.56-34.12,43-52,33.28-44.28,60.83-88.97,90-140,24.24-42.42,45.35-76.36,66-119q10.005-23.505,20-47c0.33-.67.67-1.33,1-2v1h1q21.495-54.495,43-109,11.505-34.5,23-69c2.12-4.08,7.05-28.42,8-27,1.75-5.94,7.72-30.41,8-30q14.505-66,29-132l6-51h2l6-69c5.12-14.73-1.04-33.9,4-51,8.8-29.85,8.87-176.2,0-206l-6-87c-4.99-14.67-.42-31.56-6-46-11.04-28.55-9.68-70.93-20-108q-16.5-62.49-33-125c-18.24-46.24-28.07-91.77-49-137-33.04-71.42-66.17-143.83-105-209-36-60.43-83.61-119.14-125-180q-33.99-39-68-78v-5q40.995-41,82-82C3317.28,877.715,3335.47,866.787,3338,854ZM754,859c11.881,2.859,18.605,15.277,26,23l91,89v4c-10.563,6.56-16.965,19.65-25,29-31.831,37.04-59.692,67.9-86,108-21.047,32.08-48.766,65.17-68,97-4.95,8.19-19.7,39.18-22,36a272.2,272.2,0,0,1-24,45c-0.758,1.14-1.079,5.75-3,3-15.571,35.64-32.675,72.51-51,104-14.088,24.21-20.717,57.81-35,84q-5,16.995-10,34c-27.367,61.34-35.266,130.97-58,194-8.255,22.88-3.506,52.01-14,73-1.757,3.51-2.37,27.46-4,25-1.394,5.09-2.961,29.55-4,28-3.637,13.32,1.413,22.08-4,33-5.848,11.8-.494,49.89-6,66v32c-3.9,13.23-2,35.41-2,52-0.011,37.51,1.552,80.49,2,119,0.242,20.8-.805,58.46,6,72,1.191,2.37-.84,23.33,2,19q1,16.5,2,33c4.05,11.78,7.486,33.5,8,45,0.1,2.23-.665,11.97,2,8,9.151,33.37,9.377,66.95,19,94,2.033,5.71,4.725,36.89,8,32,11.645,40.99,18.019,77.68,35,119,3.642,8.86,11.042,43.32,14,39,15.041,46.06,32.959,96.28,55,132,3.837,6.22,17.566,40.93,20,41,0.533-.8.148,7.82,3,4,19.85,48.63,48.715,94.67,78,135,32.829,45.21,57.119,89.51,94,131,16.208,18.23,48.651,70.32,68,80-2.507,11.16-16.492,17.23-23,25-28.206,33.66-59.345,62.67-90,95-2.333-.33-4.667-0.67-7-1-3.108-10.73-15.91-18.6-23-26-19.33-20.18-39.117-46.02-59-70-54.528-65.76-94.061-142.06-144-212q-24.5-45-49-90c-2.387-3.84-13.188-29.19-14-28l-62-145q-8.5-24.99-17-50c-0.676.98,0.059-10.43-3-6-8.14-26.99-12.638-56.21-25-80-3.069-5.91-4.14-34.69-8-29-1.671-5.77-5.078-25.35-6-24-8.886-31.53-11.531-65.69-21-93q-5-33-10-66c-0.138-2.15-.054-5.91-2-3-1.39-5.09-2.951-29.56-4-28q-2-25.5-4-51c-4.661-13.46,1.031-28.53-4-43-6-17.26,1.876-40.04-4-60-7.694-26.14-2.2-73.83-2-98,0.208-24.7-3.83-92.47,4-108v-26l9-78q5.5-39.99,11-80,6.5-31.995,13-64c18.192-59.37,22.42-105.24,43-163C461.742,1261.49,580,1039.02,754,859ZM969,3225h6c9.355,16.53,60.34,54.06,78,66,13.07,8.83,26.69,24.25,41,35,50.17,37.69,97.87,66.73,152,98,34.49,19.92,79.09,41.65,116,64,21.87,13.24,45.98,16.91,68,30,21.39,12.71,46.15,15.54,68,25,0.97,0.42,7.14,2.54,5,4,29.53,9.58,53.05,16.34,81,27,4.33,1.65,27.45,7.04,26,8,24.1,7.08,44.05,6.33,63,16q54.99,11.505,110,23c3.53,1.76,44.34,2.41,39,6,6.67,1.82,52.4,2.33,47,6q21,1.005,42,2c29.76,10.37,98.07,6,137,6,23.84,0,59.1,4.81,79-2h32l115-12c29.15-11.46,69.39-5.9,103-18,24.19-8.71,52.52-9.56,78-19,54.03-20.01,120.59-33.26,170-55,83.75-36.85,164.82-73.73,238-119,22.18-13.72,44.95-24.31,65-40,1.56-1.22,8.04-3.41,6-5a302.6,302.6,0,0,0,56-38c1.48-1.29,6.7-3.65,5-5,3.2-1.83,15.78-11.28,17-10q39-31.995,78-64c8.64-7.88,22.08-28.3,36-29q30.495,30,61,60c3.87,3.75,18.46,19.64,18,20,9.78,5.82,34.71,24.11,35,38-15.11,7.47-26.18,23.03-37,33q-45.495,36.99-91,74c-68.29,46.88-139,91.5-206,135-44.06,28.61-95.86,39.85-136,68q-16.995,7.005-34,14c-1.76.5-4.35,0.43-2,2-19.32,6.52-47.31,15.57-68,27-26.75,14.78-55.35,13.86-82,28-19.93,10.57-41.89,8.66-62,19-3.35,1.73-24.48,4.35-22,6-5.75,1.69-25.35,5.09-24,6-3.87,1.1-25.96,5.35-25,6-26.24,7.42-56.09,5.54-79,17-2.15,1.07-39.21,2.55-34,6-5.89,1.63-44.63,2.9-40,6q-23.505,1.995-47,4v2q-33,1.995-66,4c-3.55,1.41-20.65-.91-29,2-10.4,3.62-29.66-2.28-42,2-20.84,7.24-58.12,2-83,2-19.05,0-77.31,1.9-89-4q-27-1.005-54-2-57.495-7.005-115-14c-15.71-6.19-44-5.33-66-12-64.07-19.42-149.77-26.28-205-56q-18.495-4.995-37-10c-38.46-16.9-89.55-31.69-129-51-95.35-46.67-186.41-94.23-271-150-52.68-34.73-104.995-75.29-154-117-16.314-13.89-31.284-36.27-53-47v-7c22.794-13.04,60.853-59.31,80-80C947.236,3246.02,962.9,3237.58,969,3225Z"/>
</svg>
