<svg width="50" height="40" viewBox="0 0 50 40" fill="none" xmlns="http://www.w3.org/2000/svg">
<path d="M0.0258984 0.118233C0.103594 0.354327 13.2729 17.1694 13.3506 17.1431C13.5837 17.0644 16.4066 13.4312 16.316 13.3132C16.2642 13.2345 14.8139 11.3457 13.1046 9.10286C11.3823 6.84687 9.97089 4.97125 9.97089 4.9319C9.97089 4.89255 11.3047 4.8532 12.9492 4.8532H15.9146L18.6986 8.35524L21.4827 11.8704L21.0554 12.395C19.1389 14.7691 0 39.0997 0 39.1522C0 39.1915 4.1308 39.2178 9.16804 39.2178H18.3361L20.4597 36.5421C21.6252 35.0862 22.5575 33.827 22.5446 33.7614C22.4928 33.604 19.631 30.0495 19.5533 30.0495C19.5144 30.0495 18.6857 31.0201 17.7016 32.2137L15.9146 34.3648H12.9363C11.1104 34.3648 9.97089 34.3123 9.99678 34.2467C10.0227 34.168 13.7909 29.315 18.3879 23.4652C22.9848 17.6022 26.8955 12.5787 27.1027 12.3163L27.4523 11.831L22.8942 5.91562L18.3231 0.000187513H9.15509C3.82001 0.000187513 0 0.0526537 0.0258984 0.118233Z" fill="#EBBE5A"/>
<path d="M28.7721 2.64967C27.5622 4.11869 26.5808 5.36473 26.5808 5.4172C26.5942 5.54836 29.6055 9.16845 29.6997 9.16845C29.74 9.16845 30.6004 8.19784 31.6221 7.00426L33.4772 4.8532H36.5692C38.4782 4.8532 39.6478 4.90566 39.6209 4.98436C39.6074 5.04994 35.5341 10.1259 30.5735 16.2643C25.6263 22.4027 21.5664 27.4787 21.5664 27.5443C21.5664 27.5968 23.677 30.2463 26.2716 33.4335L30.9768 39.2178H40.4947C46.0334 39.2178 49.9992 39.1653 49.9723 39.0997C49.8916 38.8636 36.2197 22.0486 36.139 22.0748C35.8971 22.1535 32.9664 25.7867 33.0605 25.9048C33.1143 25.9704 34.6199 27.8722 36.3945 30.1151C38.1824 32.3711 39.6478 34.2467 39.6478 34.2861C39.6478 34.3254 38.2631 34.3648 36.5692 34.3648H33.4772L30.6541 31.0201C29.0947 29.1838 27.8176 27.6099 27.8176 27.5312C27.8176 27.4656 32.8051 21.2616 38.9084 13.7722C45.0117 6.26975 49.9992 0.105117 49.9992 0.0657702C49.9992 0.0264206 45.7107 0.000187513 40.4812 0.000187513H30.9633L28.7721 2.64967Z" fill="white"/>
</svg>
