<?xml version="1.0" encoding="UTF-8"?>
<svg xmlns="http://www.w3.org/2000/svg" xmlns:xlink="http://www.w3.org/1999/xlink" width="124px" height="124px" viewBox="0 0 124 124" version="1.1">
<g id="surface1">
<path style=" stroke:none;fill-rule:nonzero;fill:rgb(0%,0%,0%);fill-opacity:1;" d="M 124 62 C 124 27.757812 96.242188 0 62 0 C 27.757812 0 0 27.757812 0 62 C 0 96.242188 27.757812 124 62 124 C 96.242188 124 124 96.242188 124 62 Z M 124 62 "/>
<path style=" stroke:none;fill-rule:nonzero;fill:rgb(100%,84.313726%,0%);fill-opacity:1;" d="M 101.265625 60.335938 L 101.265625 63.664062 L 76.441406 63.664062 C 70.832031 73.453125 65.21875 83.242188 59.609375 93.03125 C 52.011719 88.609375 44.410156 84.191406 36.8125 79.769531 C 39.878906 74.402344 42.949219 69.035156 46.015625 63.664062 L 22.734375 63.664062 L 22.734375 60.335938 L 47.953125 60.335938 C 53.5625 50.546875 59.171875 40.757812 64.785156 30.96875 C 72.371094 35.378906 79.960938 39.789062 87.550781 44.199219 C 84.484375 49.578125 81.414062 54.957031 78.347656 60.335938 Z M 65.964844 35.539062 C 57.761719 49.867188 49.558594 64.199219 41.351562 78.53125 L 41.351562 78.558594 L 58.398438 88.460938 C 66.601562 74.132812 74.804688 59.800781 83.007812 45.46875 C 77.328125 42.160156 71.648438 38.851562 65.964844 35.539062 Z M 65.964844 35.539062 "/>
</g>
</svg>
