<svg xmlns="http://www.w3.org/2000/svg" width="6628" height="6628" viewBox="0 0 6628 6628">
  <defs>
    <style>
      .cls-1 {
        fill-rule: evenodd;
      }
    </style>
  </defs>
  <path id="Color_Fill_1" data-name="Color Fill 1" class="cls-1" d="M3249,1266c165.13-1.39,315.47,6.04,451,36,109.72,24.26,215.87,48.19,313,86,564.42,219.72,969.8,599.94,1198,1155,49.1,119.43,85.13,248.05,116,388,12.11,54.9,15.1,112.47,25,170,11.47,66.71,9.99,138.81,10,213,0,48.34,2.01,97.53-5,141-11.3,70.02-8.93,136.29-23,201-34.69,159.55-68.9,305.25-126,440-247.9,585.02-691.63,989-1327,1187-102.25,31.86-211.38,45.45-327,66-56.2,9.99-116.1,3.52-175,13h-74c-70.15.01-138.92-.47-201-11-59.48-10.09-115.37-11.71-171-24-159.84-35.32-304.12-77.66-438-136-559.05-243.63-959.99-691.7-1148-1307-31.36-102.62-47.16-212.78-68-330-8.56-48.13-3.02-96.92-11-148q-1.005-45.495-2-91c-0.01-53.37-1.76-107.23,6-155,8.05-49.51,5.97-96.28,15-143,26.3-136.1,48.64-265.11,94-382,34.14-87.99,64.48-178.81,110-257,29.1-49.98,54.67-101.53,85-150,39.61-63.3,83.59-123.3,128-182q53.49-62.49,107-125l50-50c44.61-54.93,117.1-112.35,174-156,66.57-51.07,134.23-101.59,207-147,117.35-73.23,246.45-130.55,384-184,125.14-48.63,261.84-71.72,409-100l150-15ZM2017,3259v110q384.465,0.495,769,1-151.98,264.975-304,530c0.67,1,1.33,2,2,3q375.96,217.98,752,436,277.965-484.95,556-970h819V3259H3854c0.33-1,.67-2,1-3q100.485-175.485,201-351,36.99-64.5,74-129c8.93-15.08,23.56-31.91,28-50q-375.96-218.475-752-437c-0.67.33-1.33,0.67-2,1l-554,969H2017Zm1428-819q281.475,163.98,563,328-406.455,709.935-813,1420-281.475-163.98-563-328Q3038.455,3150.065,3445,2440Z"/>
</svg>
