<svg xmlns="http://www.w3.org/2000/svg" xmlns:xlink="http://www.w3.org/1999/xlink" width="5232" height="2050" viewBox="0 0 5232 2050">
  <defs>
    <style>
      .cls-1, .cls-2, .cls-3 {
        fill-rule: evenodd;
      }

      .cls-1 {
        fill: url(#linear-gradient);
      }

      .cls-2 {
        fill: url(#linear-gradient-2);
      }

      .cls-3 {
        fill: url(#linear-gradient-3);
      }
    </style>
    <linearGradient id="linear-gradient" x1="3729.307" y1="1383.84" x2="3850.223" y2="698.094" gradientUnits="userSpaceOnUse">
      <stop offset="0" stop-color="#c3c9d8"/>
      <stop offset="1" stop-color="#dbdfe7"/>
    </linearGradient>
    <linearGradient id="linear-gradient-2" x1="-0.343" y1="2050.56" x2="2050.342" y2="-0.125" gradientUnits="userSpaceOnUse">
      <stop offset="0" stop-color="#030000"/>
      <stop offset="1" stop-color="#4e0000"/>
    </linearGradient>
    <linearGradient id="linear-gradient-3" x1="511.422" y1="1538" x2="1537.422" y2="512" gradientUnits="userSpaceOnUse">
      <stop offset="0" stop-color="#cdad03"/>
      <stop offset="1" stop-color="#f7d82e"/>
    </linearGradient>
  </defs>
  <path id="Gradient_Fill_3" data-name="Gradient Fill 3" class="cls-1" d="M2891,699c-0.28,16.65-5.99,35.03-10,50-1.73,6.465-.55,14.3-4,19-4.95,3.054-18.96,1-26,1H2540q-22.5,113.988-45,228h266c9.34,0,22.44-1.487,30,1q-5.505,25.5-11,51c-1.73,6.48-.56,14.28-4,19-4.41,2.72-16.61,1-23,1H2480c-0.18,10.46-3.56,21.04-6,30-4.57,16.83-5.69,34.11-10,50q-2.505,15-5,30c-9.17,33.79-12.88,71.19-22,105-5.43,20.12-6.84,40.82-12,60-2.04,7.59-.77,17.56-5,23-3.85,2.41-14.28,1-20,1h-52c-0.33-1-.67-2-1-3,6.22-9.97,5.54-32.21,9-45,9.17-33.91,11.59-70.14,21-105,6.95-25.72,8.8-53.33,16-80,5.62-20.81,7.13-43.24,13-65,19.28-71.47,25.87-148.489,45-220,9.33-34.883,11.94-71.062,21-105,2.94-11,3.86-37.514,9-45,5.84-3.6,22.87-1,31-1h379Zm1481,0c-0.3,17.078-6.83,39.411-11,55-2.12,7.948-.73,18.906-5,25-4.38,2.738-16.63,1-23,1h-58c0.3-17.078,6.83-39.411,11-55,2.12-7.948.73-18.906,5-25,4.38-2.738,16.63-1,23-1h58Zm231,168h88c12.43,0,30.53-2.46,41,1-4.66,14.373-6.15,31.581-10,46-1.77,6.622-.52,15.007-4,20-4.83,3-28.15,1-36,1h-93c-0.59,13.022-4.79,27.3-8,39-6.41,23.358-7.87,47.58-14,70q-3.495,19.995-7,40c-12.17,44.91-16.86,94.29-29,139-6.21,22.88-6.79,62.58,9,74,24.98,18.06,81.39,7.15,106-3v5c-4.95,7.73-8.13,39.21-11,50-1.16,4.36.01,12.53-3,15-6.59,5.41-34.68,6.49-46,9-57.6,12.79-106.79-10.23-127-45-4.76-8.19-6.74-19.91-9-30-2.71-12.14-.24-31.65,2-41,5.53-23.07,7.26-45.43,13-67,10.59-39.82,13.67-81.13,24-120q1.995-12.495,4-25c5.57-20.83,7.17-43.22,13-65,3.69-13.811,8.08-29.592,9-45h-86q6.495-34,13-68h87v-2c4.86-7.727,3.42-20.393,6-30,6.45-23.987,9.61-51,16-75,2.69-10.091,1.19-25.585,7-33,3.85-2.41,14.28-1,20-1h52v1h1Q4617.005,796.993,4603,867ZM2953,1131q-3,19.005-6,38c-3.14,14.51.21,42.25,3,53,14.19,54.78,33.26,74.78,88,89,14.12,3.67,31.5,4,50,4h16c16.04-3.53,33.42-2.02,49-6,22.78-5.82,45.65-10.41,66-19,11.3-4.77,25.98-14.95,38-17,0.01,17.17-5.93,35.78-10,51-2.02,7.55-.75,17.63-5,23-7.02,6.38-18.42,7.09-28,11-19.82,8.1-43.25,12.29-66,18-9.64,2.42-17.79.73-28,3-6.01,1.34-15.7,1.58-22,3h-21c-18.43,3.95-46.06.94-62-3-16.73-4.14-30.63-4.96-45-11-40.07-16.84-68.42-45.65-85-86-28.65-69.72-5.82-183.3,18-241,7.15-17.32,11.75-33.78,21-49,33.02-54.314,73.99-93.524,136-119,11.98-4.921,23.45-5.429,37-9,30.83-8.123,84.77-8.78,116,0,19.42,5.459,38.22,12.608,53,23,29.36,20.649,45.99,52.713,57,92,2.52,9.008,2.01,19.155,4,28v15c2.53,11.74,1.71,45.06-1,57-3.86,16.97-5.56,35.53-9,52H2953Zm814-267c-0.25,15.107-5.39,31.525-9,45-1.77,6.607-.51,15.031-4,20-1.07.752-.95,0.6-3,1-6.47-4.126-43.8-3-56-3-48.68,0-92.16,8.066-134,17-0.25,15.083-5.36,31.557-9,45-6.33,23.39-7.94,47.55-14,70q-3.495,19.995-7,40c-13.58,50.17-18.5,104.81-32,155-7.17,26.68-9.09,54.27-16,80-2.72,10.13-1.2,25.53-7,33-3.85,2.41-14.28,1-20,1h-52c-0.33-1-.67-2-1-3,5.6-8.98,4.87-28.46,8-40,8.75-32.26,11.01-66.79,20-100,10.92-40.35,15.14-84.64,26-125q3-17.505,6-35c7.38-27.37,9.39-56.68,17-85,6.16-22.945,11.82-48.8,15-73l76-25c26.56-8.567,55.26-11.386,83-18l32-3c9.61-2.13,43.77-5.462,55-3Zm377,0c-0.25,15.107-5.39,31.525-9,45-1.77,6.607-.51,15.031-4,20-1.07.752-.95,0.6-3,1-6.47-4.126-43.8-3-56-3-48.68,0-92.16,8.066-134,17-0.25,15.083-5.36,31.557-9,45-6.33,23.39-7.94,47.55-14,70q-3.495,19.995-7,40c-13.58,50.17-18.5,104.81-32,155-7.17,26.68-9.09,54.27-16,80-2.72,10.13-1.2,25.53-7,33-3.85,2.41-14.28,1-20,1h-52c-0.33-1-.67-2-1-3,5.6-8.98,4.87-28.46,8-40,8.75-32.26,11.01-66.79,20-100,10.92-40.35,15.14-84.64,26-125q3-17.505,6-35c7.38-27.37,9.39-56.68,17-85,6.16-22.945,11.82-48.8,15-73l76-25c26.56-8.567,55.26-11.386,83-18l32-3c9.61-2.13,43.77-5.462,55-3Zm713,267q-3,19.005-6,38c-3.14,14.51.21,42.25,3,53,14.19,54.78,33.26,74.78,88,89,14.12,3.67,31.5,4,50,4h16c16.04-3.53,33.42-2.02,49-6,22.78-5.82,45.65-10.41,66-19,11.3-4.77,25.98-14.95,38-17,0.01,17.17-5.93,35.78-10,51-2.02,7.55-.75,17.63-5,23-7.02,6.38-18.42,7.09-28,11-19.82,8.1-43.25,12.29-66,18-9.64,2.42-17.79.73-28,3-6.01,1.34-15.7,1.58-22,3h-21c-18.43,3.95-46.06.94-62-3-16.73-4.14-30.63-4.96-45-11-40.07-16.84-68.42-45.65-85-86-28.65-69.72-5.82-183.3,18-241,7.15-17.32,11.75-33.78,21-49,33.02-54.314,73.99-93.524,136-119,11.98-4.921,23.45-5.429,37-9,30.83-8.123,84.77-8.78,116,0,19.42,5.459,38.22,12.608,53,23,29.36,20.649,45.99,52.713,57,92,2.52,9.008,2.01,19.155,4,28v15c2.53,11.74,1.71,45.06-1,57-3.86,16.97-5.56,35.53-9,52H4857ZM4261,867h51c7.36,0,17.29-.9,23,1q-36.495,180.482-73,361c-8.92,33.24-11.35,67.71-20,100-2.77,10.36-2.46,30.87-8,38-3.85,2.41-14.28,1-20,1h-52c-0.33-1-.67-2-1-3,6.22-9.97,5.53-32.21,9-45,9.19-33.9,11.57-70.15,21-105,12.25-45.26,16.82-94.72,29-140q3-17.505,6-35c7.82-29,9.95-60.042,18-90C4251.02,923.864,4257.39,894.472,4261,867ZM3120,926c-4.23,2.594-11.52.667-17,2-14.36,3.5-29.2,6.463-42,12-51.26,22.167-69.84,70.23-91,123h283c2.6-7.69,3.37-25.81,2-33v-18c-2.7-12.078-4.45-24.542-9-35C3227.57,934.628,3181.93,925.6,3120,926Zm1904,0c-4.23,2.594-11.52.667-17,2-14.36,3.5-29.2,6.463-42,12-51.26,22.167-69.84,70.23-91,123h283c2.6-7.69,3.37-25.81,2-33v-18c-2.7-12.078-4.45-24.542-9-35C5131.57,934.628,5085.93,925.6,5024,926Z"/>
  <path id="Gradient_Fill_1" data-name="Gradient Fill 1" class="cls-2" d="M992,0c168.06-2.262,304.89,26.631,421,77,40.29,17.476,78.58,33.4,114,55,14.4,8.787,28.92,15.109,43,24,31.86,20.114,61.92,42.912,92,65,15.32,11.254,28.69,25.432,44,37q4.005,4.5,8,9c19.38,14.657,39.35,33.617,54,53,6.34,8.392,16.62,14.569,23,23,20.81,27.507,45.01,52.687,65,81,47.09,66.69,84.88,137.507,119,218,15.24,35.968,27.27,75.705,40,115,5.76,17.782,8.12,36.529,13,54,9.52,34.059,8.9,71.191,17,107q1.5,25.5,3,51c1.26,5.908-.52,15.837,1,23,3,14.13,3.1,49.9,0,64-1.64,7.46.37,17.78-1,24q-0.495,14.505-1,29c-6.89,30.67-4.33,63.27-12,93-6.02,23.33-8.3,47.67-15,71-15.27,53.18-30.2,105.08-51,153-118.6,273.23-334.98,477.34-629,575-41.8,13.88-86.18,21.54-131,33-14.74,3.77-29.92,3.71-44,7-26.55,6.2-57.03,2-84,8-7.14,1.59-17.1-.31-23,1h-18c-14.63,0-33.16,1.82-46-1H970c-15.685-3.5-34.9-1.62-50-5q-13-1.005-26-2c-31.973-7.55-65.148-8.21-96-17-34.687-9.88-73.83-16.77-106-30-18.18-7.48-37.649-13.04-56-21-14.786-6.42-30.564-14.64-45-21-59.212-26.1-111.151-58.89-161-94-158.586-111.69-274.265-261.17-356-450-17.6-40.65-27.336-82.96-41-128-9.629-31.74-13.722-67.74-22-102-3.063-12.68-2.287-26.14-5-38-3.254-14.22-.988-29.46-4-43v-17c-1.262-5.91.521-15.84-1-23-3-14.13-3.1-49.9,0-64,1.64-7.46-.37-17.779,1-24l1-29,9-75c4.262-17.433,4.99-36.257,10-54,14.048-49.749,23.34-99.678,42-145,21.653-52.591,42.6-105.518,71-152,22-36,44.715-71.224,69-105,16.56-23.032,36.9-43.37,54-66,6.084-8.054,15.938-13.984,22-22a212.634,212.634,0,0,1,40-40l13-14c15.605-11.809,29.145-25.264,45-37,30.648-22.686,60.126-48.195,93-69,58.018-36.718,120.908-67.233,188-95,47.462-19.642,99.438-30.318,152-45,19.619-5.48,40.555-6.313,60-11l82-9C962.737-.151,985.083,4.344,992,0Z"/>
  <path id="Gradient_Fill_2" data-name="Gradient Fill 2" class="cls-3" d="M1674,997v56H1263c-3.69,12.73-14.35,25.18-21,36-15.21,24.75-28.06,50.73-43,75-9.71,15.77-16.34,32.2-26,48-32.98,53.95-62.95,111.06-96,165-22.21,36.25-41.07,74.16-63,110-8.9,14.54-17.9,39.64-29,51-7.017-6.73-17.506-9.74-26-15-20.132-12.47-41.413-23.37-62-36-62.349-38.25-127.612-73.79-190-112-24.563-15.04-49.912-28.07-74-43-6.659-4.13-20.961-7.65-24-15,5.99-6.25,8.33-15.37,13-23,12.108-19.79,22.626-40.76,35-61,35.972-58.82,69.044-120.36,104-180H377c-4.109-12.34-1.079-39.96-1-55,10.222-3.356,27.834-1,40-1H793c7.171-16.09,17.983-31.312,27-46,17.031-27.743,31.265-56.708,48-84,10.055-16.4,16.957-33.569,27-50,35.793-58.562,68.161-120.485,104-179,17.98-29.358,33.31-60.1,51-89,5.05-8.257,14.43-33.33,22-37,5.65,6.614,16.41,9.3,24,14,20.12,12.456,41.41,23.371,62,36,64,39.261,131.03,75.7,195,115,22.91,14.075,46.57,26.088,69,40,6.94,4.3,23.13,8.178,25,17-7.59,6.489-10.65,19.256-16,28-11.08,18.114-20.63,37.475-32,56-20.52,33.447-38.2,69.078-59,103-14.98,24.434-31.4,49.74-44,76h378ZM1090,589c-1.78,7.207-7.47,13.271-11,19-8.19,13.3-15.09,27.17-23,40-22.3,36.144-41.07,74.268-63,110-15.309,24.943-26.732,51.031-42,76-43.007,70.332-81.759,144.748-125,215-13.932,22.63-24.135,46.32-38,69-26.093,42.68-48.577,87.9-75,131-6.476,10.56-12.256,21.95-19,33-2.607,4.27-9.393,12.25-9,16,5.658,6.66,16.376,9.28,24,14,20.122,12.46,41.4,23.36,62,36,39.866,24.46,81.678,46.28,122,71,23.591,14.46,47.755,30.73,73,43,1.8-7.47,7.415-13.19,11-19,7.176-11.64,13.106-23.77,20-35,23.65-38.52,43.64-78.9,67-117,14.92-24.34,26.13-49.66,41-74,47.77-78.17,90.12-160.85,138-239,13.52-22.062,23.52-44.927,37-67,21.9-35.855,40.86-73.73,63-110,6.87-11.248,12.87-23.319,20-35,2.9-4.755,6.87-8.271,8-15-8.12-2.339-15.32-8.836-22-13-15.87-9.9-32.47-18.426-48-28-46.03-28.383-93.9-51.724-140-80-15.53-9.524-32.09-18.16-48-28C1106.17,597.776,1098.89,590.678,1090,589Z"/>
</svg>
